<?xml version="1.0" encoding="utf-8"?>
<!-- Generator: Adobe Illustrator 23.0.3, SVG Export Plug-In . SVG Version: 6.00 Build 0)  -->
<svg version="1.1" id="_x2014_ÎÓÈ_x5F_1" xmlns="http://www.w3.org/2000/svg" xmlns:xlink="http://www.w3.org/1999/xlink"
	 x="0px" y="0px" viewBox="0 0 5000 4000" style="enable-background:new 0 0 5000 4000;" xml:space="preserve">
<style type="text/css">
	.st0{fill:#FF3300;}
	.st1{fill:#EDEDED;}
</style>
<g>
	<polygon class="st0" points="2583.85,1513.39 2336.31,1513.39 2336.31,1265.84 2069.72,1265.84 2069.72,1513.39 1822.18,1513.39 
		1822.18,1779.97 2069.72,1779.97 2069.72,2027.52 2336.31,2027.52 2336.31,1779.97 2583.85,1779.97 	"/>
	<path class="st1" d="M2583.85,1513.39v266.59h247.54v440.06c0,136.5-111.05,247.54-247.54,247.54
		c-136.5,0-247.54-111.05-247.54-247.54v-192.51h-266.59v205.65h0.16c1.61,64.72,15.15,127.57,40.29,187.02
		c25.9,61.24,62.95,116.21,110.13,163.38c47.17,47.17,102.14,84.23,163.38,110.13c63.47,26.85,130.81,40.46,200.16,40.46
		s136.69-13.61,200.16-40.46c61.24-25.9,116.21-62.95,163.38-110.13c47.17-47.17,84.23-102.14,110.13-163.38
		c25.15-59.45,38.68-122.31,40.29-187.02h0.16v-719.78H2583.85z"/>
</g>
</svg>
