<svg aria-hidden="true" style="position: absolute; width: 0; height: 0; overflow: hidden;" version="1.1" xmlns="http://www.w3.org/2000/svg" xmlns:xlink="http://www.w3.org/1999/xlink">
<defs>
<symbol id="icon3" viewBox="0 0 32 32">
<path fill="#f30" style="fill: var(--color1, #f30)" d="M16 0c-8.822 0-16 7.177-16 16s7.178 16 16 16 16-7.177 16-16-7.178-16-16-16zM16 30.769c-8.143 0-14.769-6.626-14.769-14.769s6.626-14.769 14.769-14.769 14.769 6.626 14.769 14.769-6.626 14.769-14.769 14.769z"></path>
<path fill="#f30" style="fill: var(--color1, #f30)" d="M23.54 9.438l-9.458 10.64-5.698-4.558c-0.265-0.212-0.653-0.169-0.865 0.096-0.212 0.266-0.169 0.653 0.096 0.865l6.154 4.923c0.113 0.090 0.249 0.135 0.385 0.135 0.17 0 0.339-0.070 0.46-0.207l9.846-11.077c0.226-0.254 0.203-0.643-0.051-0.868-0.255-0.226-0.643-0.204-0.87 0.051z"></path>
</symbol>
<symbol id="icon5" viewBox="0 0 32 32">
<path fill="#f30" style="fill: var(--color1, #f30)" d="M29.969 20.877c0.244-1.060 0.376-2.14 0.376-3.222 0-5.018-2.555-9.587-6.835-12.222-0.261-0.16-0.6-0.079-0.759 0.18s-0.079 0.599 0.18 0.759c3.951 2.433 6.311 6.65 6.311 11.283 0 0.952-0.11 1.904-0.316 2.84-0.254-0.053-0.518-0.081-0.787-0.081-2.13 0-3.862 1.733-3.862 3.862s1.732 3.862 3.862 3.862 3.862-1.733 3.862-3.862c0-1.467-0.823-2.745-2.031-3.399zM28.138 27.034c-1.521 0-2.759-1.238-2.759-2.759s1.238-2.759 2.759-2.759 2.759 1.238 2.759 2.759-1.238 2.759-2.759 2.759z"></path>
<path fill="#f30" style="fill: var(--color1, #f30)" d="M21.060 29.894c-1.608 0.665-3.31 1.003-5.060 1.003-3.523 0-6.911-1.421-9.389-3.913 0.687-0.698 1.113-1.654 1.113-2.708 0-2.129-1.732-3.862-3.862-3.862s-3.862 1.733-3.862 3.862 1.732 3.862 3.862 3.862c0.676 0 1.312-0.176 1.865-0.483 2.692 2.765 6.407 4.345 10.273 4.345 1.895 0 3.74-0.366 5.482-1.087 0.281-0.116 0.415-0.439 0.299-0.721-0.116-0.281-0.44-0.414-0.721-0.298zM1.103 24.276c0-1.521 1.238-2.759 2.759-2.759s2.759 1.238 2.759 2.759-1.238 2.759-2.759 2.759-2.759-1.238-2.759-2.759z"></path>
<path fill="#f30" style="fill: var(--color1, #f30)" d="M2.207 17.221c0.013 0.001 0.026 0.002 0.039 0.002 0.287 0 0.529-0.222 0.55-0.513 0.393-5.566 4.185-10.218 9.501-11.759 0.471 1.601 1.951 2.774 3.703 2.774 2.13 0 3.862-1.733 3.862-3.862s-1.732-3.862-3.862-3.862c-2.125 0-3.854 1.725-3.862 3.848-5.838 1.626-10.014 6.701-10.443 12.784-0.022 0.303 0.207 0.568 0.511 0.589zM16 1.103c1.521 0 2.759 1.238 2.759 2.759s-1.238 2.759-2.759 2.759-2.759-1.238-2.759-2.759 1.238-2.759 2.759-2.759z"></path>
</symbol>
<symbol id="icon6" viewBox="0 0 32 32">
<path fill="#f30" style="fill: var(--color1, #f30)" d="M30.4 3.733h-28.8c-0.884 0-1.6 0.716-1.6 1.6v21.333c0 0.884 0.716 1.6 1.6 1.6h28.8c0.884 0 1.6-0.716 1.6-1.6v-21.333c0-0.884-0.716-1.6-1.6-1.6zM30.933 26.667c0 0.295-0.239 0.533-0.533 0.533h-28.8c-0.295 0-0.533-0.239-0.533-0.533v-21.333c0-0.295 0.239-0.533 0.533-0.533h28.8c0.295 0 0.533 0.239 0.533 0.533v21.333z"></path>
<path fill="#f30" style="fill: var(--color1, #f30)" d="M29.38 5.869c-0.141-0.012-0.281 0.032-0.389 0.123l-12.304 10.336c-0.397 0.334-0.976 0.334-1.373 0l-12.304-10.336c-0.146-0.122-0.346-0.158-0.525-0.093s-0.31 0.221-0.343 0.409 0.036 0.379 0.182 0.501l12.304 10.335c0.793 0.668 1.951 0.668 2.745 0l12.304-10.335c0.108-0.091 0.176-0.221 0.188-0.362s-0.032-0.281-0.123-0.389c-0.091-0.108-0.221-0.176-0.362-0.189z"></path>
<path fill="#f30" style="fill: var(--color1, #f30)" d="M10.258 17.071c-0.189-0.042-0.386 0.021-0.514 0.166l-7.467 8c-0.135 0.138-0.185 0.339-0.13 0.524s0.206 0.326 0.395 0.369c0.189 0.042 0.386-0.021 0.514-0.166l7.467-8c0.135-0.138 0.185-0.339 0.13-0.524s-0.206-0.326-0.395-0.369z"></path>
<path fill="#f30" style="fill: var(--color1, #f30)" d="M22.257 17.236c-0.129-0.144-0.326-0.208-0.514-0.166s-0.34 0.183-0.395 0.369c-0.055 0.185-0.006 0.386 0.13 0.524l7.467 8c0.203 0.207 0.534 0.215 0.745 0.017s0.227-0.529 0.034-0.745l-7.467-8z"></path>
</symbol>
<symbol id="icon7" viewBox="0 0 32 32">
<path fill="#f30" style="fill: var(--color1, #f30)" d="M31.467 5.333h-12.8c-0.295 0-0.533 0.239-0.533 0.533v4.8c0 0.295 0.239 0.533 0.534 0.533 0.057-0 0.114-0.009 0.168-0.027l0.67-0.223c0.728-0.238 1.511 0.159 1.749 0.887s-0.159 1.511-0.887 1.749c-0.28 0.092-0.582 0.092-0.863 0l-0.67-0.223c-0.279-0.093-0.581 0.058-0.675 0.337-0.018 0.054-0.027 0.111-0.027 0.168v4.267h-4.267c-0.295 0-0.533 0.239-0.533 0.534 0 0.057 0.009 0.114 0.027 0.168l0.223 0.67c0.238 0.728-0.159 1.511-0.887 1.749s-1.511-0.159-1.749-0.887c-0.092-0.28-0.092-0.582 0-0.863l0.223-0.67c0.093-0.279-0.058-0.581-0.337-0.675-0.054-0.018-0.111-0.027-0.168-0.027h-4.8c-0.295 0-0.533 0.239-0.533 0.533v12.8c0 0.295 0.239 0.533 0.533 0.533h25.6c0.295 0 0.533-0.239 0.533-0.533v-25.6c0-0.295-0.239-0.533-0.533-0.533zM18.161 26.499c-0.018 0.054-0.027 0.111-0.027 0.168v4.267h-11.733v-11.733h3.527c-0.408 1.292 0.31 2.67 1.602 3.078s2.67-0.31 3.078-1.602c0.151-0.48 0.151-0.996 0-1.476h3.527v4.267c0 0.295 0.239 0.533 0.534 0.533 0.057-0 0.114-0.009 0.168-0.027l0.67-0.223c0.728-0.238 1.511 0.159 1.749 0.887s-0.159 1.511-0.887 1.749c-0.28 0.092-0.582 0.092-0.863 0l-0.67-0.223c-0.279-0.093-0.581 0.058-0.674 0.338zM30.933 30.933h-11.733v-3.527c1.292 0.408 2.67-0.31 3.078-1.602s-0.31-2.67-1.602-3.078c-0.48-0.151-0.996-0.151-1.476 0v-3.527h4.267c0.295-0 0.533-0.239 0.533-0.534-0-0.057-0.009-0.114-0.027-0.168l-0.223-0.67c-0.238-0.728 0.159-1.511 0.887-1.749s1.511 0.159 1.749 0.887c0.092 0.28 0.092 0.582 0 0.863l-0.223 0.67c-0.093 0.279 0.058 0.581 0.337 0.675 0.054 0.018 0.111 0.027 0.168 0.027h4.267v11.733zM30.933 18.133h-3.527c0.408-1.292-0.31-2.67-1.602-3.078s-2.67 0.31-3.078 1.602c-0.151 0.48-0.151 0.996 0 1.476h-3.527v-3.527c0.741 0.24 1.552 0.111 2.181-0.348 1.103-0.787 1.359-2.319 0.573-3.422-0.621-0.871-1.736-1.239-2.753-0.909v-3.527h11.733v11.733z"></path>
<path fill="#f30" style="fill: var(--color1, #f30)" d="M15.342 4.594c-0.48-0.151-0.996-0.151-1.476 0v-4.060c0-0.295-0.239-0.533-0.533-0.533h-12.8c-0.295 0-0.533 0.239-0.533 0.533v12.8c0 0.295 0.239 0.533 0.533 0.533h4.060c-0.408 1.292 0.31 2.67 1.602 3.078s2.67-0.31 3.078-1.602c0.151-0.48 0.151-0.996 0-1.476h4.060c0.295 0 0.533-0.239 0.533-0.533v-4.060c1.292 0.408 2.67-0.31 3.078-1.602s-0.31-2.67-1.602-3.078zM15.035 8.251c-0.28 0.092-0.582 0.092-0.863 0l-0.67-0.223c-0.279-0.093-0.581 0.058-0.675 0.337-0.018 0.054-0.027 0.111-0.027 0.168v4.267h-4.267c-0.295 0-0.533 0.239-0.533 0.534 0 0.057 0.009 0.114 0.027 0.168l0.223 0.67c0.238 0.728-0.159 1.511-0.887 1.749s-1.511-0.159-1.749-0.887c-0.092-0.28-0.092-0.582 0-0.863l0.223-0.67c0.093-0.279-0.058-0.581-0.337-0.675-0.054-0.018-0.111-0.027-0.168-0.027h-4.267v-11.733h11.733v4.267c0 0.295 0.239 0.533 0.534 0.533 0.057-0 0.114-0.009 0.168-0.027l0.67-0.223c0.728-0.238 1.511 0.159 1.749 0.887s-0.159 1.511-0.886 1.749z"></path>
</symbol>
</defs>
</svg>
